<?xml version="1.0" encoding="UTF-8" standalone="no"?><!DOCTYPE svg PUBLIC "-//W3C//DTD SVG 1.1//EN" "http://www.w3.org/Graphics/SVG/1.1/DTD/svg11.dtd"><svg width="713px" height="566px" version="1.1" xmlns="http://www.w3.org/2000/svg" xmlns:xlink="http://www.w3.org/1999/xlink" xml:space="preserve" xmlns:serif="http://www.serif.com/" style="fill-rule:evenodd;clip-rule:evenodd;stroke-linejoin:round;stroke-miterlimit:2;"><g transform="matrix(0.24,0,0,0.24,-155.76,-330.48)"><g transform="matrix(4.166667,0,0,4.166667,0,0)"><g transform="matrix(0.973008,0,0,0.973008,13.588753,24.449078)"><path d="M151.736,817.424c-0.489,-2.042 -1.292,-4 -1.781,-6.042c-4.638,-19.366 -3.124,-19.646 -3.284,-337.882c-0.032,-63.355 -6.373,-105.342 36.126,-138.615c26.179,-20.496 39.271,-20.674 137.706,-19.751c39.855,0.374 37.827,57.649 2.003,58.498c-65.635,1.557 -99.824,-8.583 -112.532,24.049c-2.471,6.345 -2.622,6.493 -2.576,269.818c0.022,126.748 -2.157,129.149 13.514,147.66c17.02,20.104 28.677,17.776 125.589,17.637c260.963,-0.375 418.705,1.196 429.978,-1.388c49.855,-11.428 41.178,-72.881 41.169,-79.909c-0.424,-341.349 1.443,-341.725 -2.325,-352.934c-11.825,-35.18 -57.774,-22.898 -112.829,-24.903c-29.667,-1.08 -36.696,-39.131 -15.867,-52.991c6.663,-4.434 11.166,-7.431 99.881,-5.583c48.277,1.006 85.201,38.662 90.586,81.468c2.515,19.996 0.879,354.148 0.728,384.943c-0.374,76.28 -59.555,112.362 -107.323,113.907c-2.706,0.088 -398.426,0.045 -422.997,0.025c-97.389,-0.082 -128.509,5.686 -166.737,-31.198c-21.972,-21.2 -28.996,-46.733 -29.027,-46.81Z" style="fill:white;"/></g></g></g></svg>
