<?xml version="1.0" encoding="UTF-8" standalone="no"?><!DOCTYPE svg PUBLIC "-//W3C//DTD SVG 1.1//EN" "http://www.w3.org/Graphics/SVG/1.1/DTD/svg11.dtd"><svg width="404px" height="387px" version="1.1" xmlns="http://www.w3.org/2000/svg" xmlns:xlink="http://www.w3.org/1999/xlink" xml:space="preserve" xmlns:serif="http://www.serif.com/" style="fill-rule:evenodd;clip-rule:evenodd;stroke-linejoin:round;stroke-miterlimit:2;"><g transform="matrix(0.24,0,0,0.24,-310.56,-426.72)"><g transform="matrix(4.166667,0,0,4.166667,0,0)"><g transform="matrix(0.973008,0,0,0.973008,13.588753,24.449078)"><path d="M441.431,479.59c2.409,2.188 2.4,2.167 2.601,2.363c1.38,1.34 1.166,1.338 2.436,2.571c10.695,11.547 35.626,37.187 64.56,87.243c6.24,10.795 2.86,-15.379 67.529,-86.217c3.153,-3.317 3.128,-3.3 3.405,-3.582c0.74,-0.756 0.692,-0.518 1.572,-1.417c5.907,-5.92 20.192,-20.688 48.236,-41.678c2.051,-1.535 43.896,-30.97 42.015,-22.313c-0.066,0.302 -27.487,36.104 -29.886,39.237c-55.957,73.058 -90.718,196.45 -80.452,192.498c38.588,-14.853 80.403,-45.308 86.886,-50.03c45.572,-33.191 76.446,-70.472 68.777,-52.935c-41.628,95.198 -116.314,159.847 -140.786,182.984c-38.184,36.101 -41.119,55.129 -62.258,80.812c-3.886,4.721 -9.674,-5.926 -31.062,-37.283c-41.386,-60.675 -60.179,-54.636 -120.135,-131.626c-31.114,-39.954 -59.968,-94.853 -59.605,-98.75c0.821,-8.795 16.135,14.522 62.603,50.552c41.995,32.562 98.286,61.646 97.244,54.495c-6.801,-46.672 -25.575,-89.131 -28.931,-96.867c-39.54,-91.138 -99.846,-144.905 -80.748,-135.001c41.913,21.735 79.842,58.908 86,64.942Z" style="fill:rgb(94,94,94);"/></g></g></g></svg>
