<?xml version="1.0" encoding="UTF-8" standalone="no"?><!DOCTYPE svg PUBLIC "-//W3C//DTD SVG 1.1//EN" "http://www.w3.org/Graphics/SVG/1.1/DTD/svg11.dtd"><svg width="195px" height="180px" version="1.1" xmlns="http://www.w3.org/2000/svg" xmlns:xlink="http://www.w3.org/1999/xlink" xml:space="preserve" xmlns:serif="http://www.serif.com/" style="fill-rule:evenodd;clip-rule:evenodd;stroke-linejoin:round;stroke-miterlimit:2;"><g transform="matrix(0.24,0,0,0.24,-224.64,-144)"><g transform="matrix(4.166667,0,0,4.166667,0,0)"><g transform="matrix(0.973008,0,0,0.973008,13.588753,24.449078)"><path d="M414.095,123.025c-1.526,7.004 -8.429,85.5 1.88,173.433c0.618,5.27 0.23,5.147 0.463,10.365c-37.41,-2.911 -64.657,-4.544 -132.874,-13.811c-52.597,-7.145 -59.929,-7.802 -65.046,-41.522c-1.532,-30.435 -2.492,-30.322 -0.316,-69.012l0.377,-3.949c0.551,-3.266 0.489,-20.731 13.278,-30.563c16.132,-12.403 180.814,-24.384 182.237,-24.942Z" style="fill:white;"/></g></g></g></svg>
