<?xml version="1.0" encoding="UTF-8" standalone="no"?><!DOCTYPE svg PUBLIC "-//W3C//DTD SVG 1.1//EN" "http://www.w3.org/Graphics/SVG/1.1/DTD/svg11.dtd"><svg width="200px" height="455px" version="1.1" xmlns="http://www.w3.org/2000/svg" xmlns:xlink="http://www.w3.org/1999/xlink" xml:space="preserve" xmlns:serif="http://www.serif.com/" style="fill-rule:evenodd;clip-rule:evenodd;stroke-linejoin:round;stroke-miterlimit:2;"><g transform="matrix(0.24,0,0,0.24,-412.8,-128.4)"><g transform="matrix(4.166667,0,0,4.166667,0,0)"><g transform="matrix(0.24,0,0,0.24,0,0)"><path d="M1866.694,2066.231c-5.152,-5.002 -4.282,-4.991 -9.878,-10.425c-0.818,-0.794 -0.781,-0.71 -10.547,-9.581c10.326,-21.089 0.334,-186.01 -1.475,-206.938c-13.576,-157.071 -99.643,-493.209 -99.849,-493.493c-0.946,-21.155 0.626,-20.656 -1.879,-42.024c-41.796,-356.496 -13.808,-674.735 -7.623,-703.132c14.586,-29.866 20.407,-32.869 22.086,-34.324c50.065,-43.381 664.807,-36.233 745.482,-7.622c9.157,6.888 15.085,6.741 33.855,42.409c14.485,108.647 21.768,438.695 -6.966,682.346c-4.876,41.345 -6.518,40.928 -5.517,62.943c-7.643,31.131 -65.008,264.776 -86.303,391.285c-20.916,124.259 -23.519,293.336 -15.695,312.449c-3.568,3.645 -3.372,2.678 -6.372,5.744c-1.121,1.146 -1.023,1.076 -13.804,14.523c-262.182,287.193 -248.48,393.305 -273.777,349.541c-117.304,-202.938 -218.377,-306.888 -261.739,-353.701Z" style="fill:rgb(172,172,172);"/></g></g></g></svg>
